<svg width="25" height="25" viewBox="0 0 25 25" fill="none" xmlns="http://www.w3.org/2000/svg">
<g id="lock">
<path id="Vector" d="M19.6865 11.208H5.68652C4.58195 11.208 3.68652 12.1034 3.68652 13.208V20.208C3.68652 21.3126 4.58195 22.208 5.68652 22.208H19.6865C20.7911 22.208 21.6865 21.3126 21.6865 20.208V13.208C21.6865 12.1034 20.7911 11.208 19.6865 11.208Z" stroke="black" stroke-width="2" stroke-linecap="round" stroke-linejoin="round"/>
<path id="Vector_2" d="M7.68652 11.208V7.20801C7.68652 5.88193 8.21331 4.61016 9.15099 3.67247C10.0887 2.73479 11.3604 2.20801 12.6865 2.20801C14.0126 2.20801 15.2844 2.73479 16.2221 3.67247C17.1597 4.61016 17.6865 5.88193 17.6865 7.20801V11.208" stroke="black" stroke-width="2" stroke-linecap="round" stroke-linejoin="round"/>
</g>
</svg>
