<svg width="25" height="24" viewBox="0 0 25 24" fill="none" xmlns="http://www.w3.org/2000/svg">
<g id="truck" clip-path="url(#clip0_639_1124)">
<path id="Vector" d="M16.5 3H1.5V16H16.5V3Z" stroke="black" stroke-width="2" stroke-linecap="round" stroke-linejoin="round"/>
<path id="Vector_2" d="M16.5 8H20.5L23.5 11V16H16.5V8Z" stroke="black" stroke-width="2" stroke-linecap="round" stroke-linejoin="round"/>
<path id="Vector_3" d="M6 21C7.38071 21 8.5 19.8807 8.5 18.5C8.5 17.1193 7.38071 16 6 16C4.61929 16 3.5 17.1193 3.5 18.5C3.5 19.8807 4.61929 21 6 21Z" stroke="black" stroke-width="2" stroke-linecap="round" stroke-linejoin="round"/>
<path id="Vector_4" d="M19 21C20.3807 21 21.5 19.8807 21.5 18.5C21.5 17.1193 20.3807 16 19 16C17.6193 16 16.5 17.1193 16.5 18.5C16.5 19.8807 17.6193 21 19 21Z" stroke="black" stroke-width="2" stroke-linecap="round" stroke-linejoin="round"/>
</g>
<defs>
<clipPath id="clip0_639_1124">
<rect width="24" height="24" fill="white" transform="translate(0.5)"/>
</clipPath>
</defs>
</svg>
