<svg width="25" height="24" viewBox="0 0 25 24" fill="none" xmlns="http://www.w3.org/2000/svg">
<g id="wind">
<path id="Vector" d="M10.09 4.58998C10.3223 4.3563 10.6088 4.18363 10.9239 4.08732C11.239 3.99102 11.573 3.97407 11.8963 4.03797C12.2195 4.10188 12.522 4.24466 12.7768 4.45363C13.0315 4.66259 13.2307 4.93127 13.3566 5.23578C13.4825 5.54028 13.5313 5.87117 13.4985 6.19905C13.4657 6.52692 13.3524 6.84161 13.1687 7.11514C12.9849 7.38868 12.7365 7.61258 12.4454 7.76695C12.1542 7.92132 11.8295 8.00137 11.5 7.99998H2.5M13.09 19.41C13.3223 19.6437 13.6088 19.8163 13.9239 19.9126C14.239 20.0089 14.573 20.0259 14.8963 19.962C15.2195 19.8981 15.522 19.7553 15.7768 19.5463C16.0315 19.3374 16.2307 19.0687 16.3566 18.7642C16.4825 18.4597 16.5313 18.1288 16.4985 17.8009C16.4657 17.473 16.3524 17.1584 16.1687 16.8848C15.9849 16.6113 15.7365 16.3874 15.4454 16.233C15.1542 16.0786 14.8295 15.9986 14.5 16H2.5M18.23 7.72998C18.5208 7.43987 18.8787 7.2259 19.2719 7.10699C19.6652 6.98809 20.0816 6.96792 20.4845 7.04827C20.8874 7.12861 21.2642 7.307 21.5817 7.56765C21.8993 7.8283 22.1477 8.16318 22.305 8.54267C22.4623 8.92217 22.5236 9.33458 22.4836 9.74343C22.4436 10.1523 22.3035 10.545 22.0756 10.8868C21.8477 11.2286 21.5391 11.509 21.1771 11.7031C20.8151 11.8973 20.4108 11.9992 20 12H2.5" stroke="black" stroke-width="2" stroke-linecap="round" stroke-linejoin="round"/>
</g>
</svg>
